<svg xmlns="http://www.w3.org/2000/svg" xmlns:xlink="http://www.w3.org/1999/xlink" viewBox="0 0 500 500">
  <defs>
    <pattern id="pattern-0-0" patternTransform="matrix(1, 0, 0, 1, 237.5, 237.5)" xlink:href="#pattern-0"/>
    <pattern x="0" y="0" width="25" height="25" patternUnits="userSpaceOnUse" viewBox="0 0 100 100" id="pattern-0">
      <rect x="0" y="0" width="50" height="100" style="fill: green;"/>
    </pattern>
  </defs>
  <circle cx="390.173" cy="258.293" r="11.691" style="fill: red;"/>
  <circle cx="424.791" cy="258.293" r="11.691" style="fill: orange;"/>
  <circle cx="390.173" cy="291.393" r="11.691" style="fill-opacity: 0; stroke: #b7bba9;"/>
  <circle cx="424.791" cy="291.393" r="11.691" style="fill-opacity: 0; stroke: #b7bba9;"/>
  <circle cx="390.173" cy="324.492" r="11.691" style="fill-opacity: 0; stroke: #b7bba9;"/>
  <path d="M 43.9 365.233 L 456.1 365.233 C 468.726 365.233 479 354.96 479 342.333 L 479 157.667 C 479 145.041 468.726 134.767 456.1 134.767 L 43.9 134.767 C 31.274 134.767 21 145.041 21 157.667 L 21 342.333 C 21 354.96 31.274 365.233 43.9 365.233 Z M 39.32 157.667 C 39.32 155.139 41.372 153.087 43.9 153.087 L 456.1 153.087 C 458.628 153.087 460.68 155.139 460.68 157.667 L 460.68 342.333 C 460.68 344.861 458.628 346.913 456.1 346.913 L 43.9 346.913 C 41.372 346.913 39.32 344.861 39.32 342.333 L 39.32 157.667 Z" style="stroke-miterlimit: 3; fill-rule: nonzero; fill-opacity: 0.84; paint-order: fill; fill: url(#pattern-0-0);"/>
  <path d="M 249.969 203.581 C 249.238 203.593 248.575 204.018 248.258 204.677 L 221.332 246.992 C 221.288 247.058 221.247 247.125 221.211 247.197 C 221.211 247.197 221.209 247.199 221.207 247.201 C 221.18 247.257 221.155 247.315 221.131 247.375 C 221.085 247.495 221.052 247.62 221.029 247.748 C 221.008 247.875 221 248.003 221.004 248.133 C 221.004 248.134 221.004 248.134 221.004 248.136 C 221.006 248.2 221.01 248.262 221.019 248.326 C 221.021 248.337 221.023 248.351 221.027 248.363 C 221.043 248.459 221.064 248.554 221.095 248.647 C 221.099 248.664 221.104 248.682 221.108 248.699 C 221.108 248.701 221.108 248.701 221.108 248.703 C 221.129 248.763 221.155 248.823 221.182 248.881 C 221.182 248.883 221.182 248.883 221.182 248.884 C 221.209 248.941 221.238 248.997 221.271 249.051 C 221.271 249.051 221.271 249.053 221.271 249.055 C 221.303 249.109 221.34 249.161 221.377 249.213 C 221.396 249.236 221.414 249.258 221.433 249.281 C 221.456 249.31 221.477 249.337 221.503 249.364 C 221.543 249.41 221.588 249.457 221.634 249.499 C 221.636 249.501 221.636 249.501 221.638 249.503 C 221.733 249.588 221.835 249.665 221.943 249.729 C 221.945 249.731 221.945 249.733 221.947 249.733 C 221.957 249.739 221.967 249.745 221.978 249.749 C 221.978 249.751 221.98 249.751 221.982 249.752 L 248.799 265.078 C 249.497 265.629 250.483 265.633 251.185 265.086 L 277.979 249.772 C 277.995 249.764 278.008 249.756 278.022 249.749 C 278.064 249.723 278.105 249.698 278.145 249.669 C 278.159 249.662 278.17 249.652 278.184 249.642 C 278.192 249.636 278.201 249.629 278.211 249.621 C 278.25 249.592 278.288 249.563 278.327 249.534 C 278.329 249.53 278.333 249.528 278.335 249.526 C 278.343 249.52 278.35 249.513 278.358 249.507 C 278.399 249.47 278.437 249.432 278.474 249.391 C 278.518 249.343 278.559 249.294 278.6 249.242 C 278.636 249.194 278.671 249.142 278.704 249.087 C 278.706 249.087 278.708 249.086 278.708 249.084 C 278.71 249.08 278.712 249.076 278.712 249.072 C 278.745 249.024 278.776 248.971 278.803 248.917 C 278.803 248.917 278.803 248.915 278.803 248.913 C 278.824 248.869 278.845 248.825 278.862 248.778 C 278.868 248.765 278.874 248.751 278.878 248.738 C 278.884 248.722 278.89 248.707 278.893 248.691 C 278.907 248.649 278.92 248.604 278.932 248.56 C 278.932 248.558 278.934 248.554 278.936 248.552 C 278.936 248.548 278.938 248.544 278.938 248.54 C 278.953 248.482 278.965 248.422 278.973 248.363 C 278.98 248.314 278.988 248.266 278.992 248.216 C 278.992 248.212 278.992 248.206 278.992 248.2 C 278.996 248.142 278.998 248.082 278.996 248.024 C 278.994 247.986 278.992 247.947 278.988 247.91 C 278.986 247.87 278.982 247.829 278.977 247.788 C 278.977 247.788 278.977 247.787 278.977 247.785 C 278.975 247.779 278.975 247.773 278.973 247.767 C 278.963 247.711 278.953 247.657 278.938 247.605 C 278.938 247.601 278.938 247.599 278.938 247.597 C 278.926 247.549 278.913 247.5 278.897 247.454 C 278.891 247.439 278.888 247.425 278.882 247.412 C 278.876 247.396 278.87 247.381 278.862 247.367 C 278.847 247.323 278.83 247.28 278.81 247.238 C 278.808 247.238 278.808 247.236 278.806 247.234 C 278.805 247.23 278.805 247.226 278.803 247.222 C 278.776 247.168 278.745 247.116 278.712 247.064 C 278.708 247.058 278.704 247.052 278.7 247.046 C 278.698 247.04 278.696 247.035 278.694 247.031 L 278.632 246.94 L 251.732 204.666 C 251.403 203.993 250.717 203.571 249.969 203.581 Z M 248.067 212.181 L 248.067 235.195 L 227.932 243.822 L 248.067 212.181 Z M 251.933 212.181 L 272.068 243.822 L 251.933 235.195 L 251.933 212.181 Z M 248.067 239.401 L 248.067 260.199 L 227.271 248.318 L 248.067 239.401 Z M 251.933 239.401 L 272.729 248.318 L 251.933 260.199 L 251.933 239.401 Z M 277.078 255.797 C 276.736 255.795 276.4 255.884 276.104 256.054 L 250 270.972 L 223.896 256.054 C 223.613 255.894 223.298 255.807 222.974 255.801 C 221.487 255.772 220.524 257.365 221.244 258.668 C 221.284 258.741 221.331 258.813 221.381 258.882 L 248.316 295.437 C 249.047 296.732 250.908 296.749 251.664 295.468 C 251.67 295.458 251.674 295.448 251.68 295.441 L 278.617 258.882 C 279.504 257.686 278.764 255.979 277.285 255.809 C 277.216 255.801 277.148 255.797 277.078 255.797 Z M 229.921 263.953 L 248.067 274.324 L 248.067 288.58 L 229.921 263.953 Z M 270.079 263.953 L 251.933 288.58 L 251.933 274.324 L 270.079 263.953 Z" style="fill: orange;"/>
  <text style="fill: #17be9a; font-family: &quot;Chalkboard SE&quot;; font-size: 18px; white-space: pre;" x="98.93" y="257.611">0.588</text>
  <text style="fill: #33870c; font-family: &quot;Chalkboard SE&quot;; font-size: 12.9px; white-space: pre;" x="231.388" y="324.609">$1000</text>
  <text style="fill: #17be9a; font-family: &quot;Chalkboard SE&quot;; font-size: 18px; white-space: pre;" x="340.584" y="257.611">0.588</text>
</svg>